# xmcd
#
# Track frame offsets:
#	150
#	12502
#	22717
#	33317
#	46487
#	62177
#	86553
#	101290
#	120176
#	131515
#	148884
#	158582
#
# Disc length: 2367 seconds
#
# Revision: 0
# Processed by: cddbd v1.5.2PL0 Copyright (c) Steve Scherf et al.
# Submitted via: audiograbber 1.83.01
#
DISCID=8f093d0c
DTITLE=Sampler - Blues Package 69
DYEAR=1969
DGENRE=Blues
TTITLE0=Mother Earth  - Goodnight Nelda Grebe, The Telephone Company Has Cut Us
TTITLE0=Off 
TTITLE1=Elizabeth - Dissimilitude 
TTITLE2=Cuby and Blizzards - Let's Make It 
TTITLE3=Buddy Guy  - 24 Hours Of The Day 
TTITLE4=Buddy Miles Express  - Let Your Lovelight Shine 
TTITLE5=Harsh Reality  - Melancholy Lady 
TTITLE6=John Dummer Blues Band - No Change With You 
TTITLE7=Charley Musselwhite Blues Band - Hey Baby 
TTITLE8=Sweet Pain  - The Steamer 
TTITLE9=Blue Cheer  - Summertime Blues 
TTITLE10=Junior Wells  - Up In Heah 
TTITLE11=Alexis Korner  - I Wonder Who 
EXTD=
EXTT0=
EXTT1=
EXTT2=
EXTT3=
EXTT4=
EXTT5=
EXTT6=
EXTT7=
EXTT8=
EXTT9=
EXTT10=
EXTT11=
PLAYORDER=
